<mxfile host="af964da7-48ef-4a5e-8d11-02b59eff48a2" modified="2020-09-08T17:36:56.105Z" agent="5.0 (Windows NT 10.0; Win64; x64) AppleWebKit/537.36 (KHTML, like Gecko) Code/1.48.2 Chrome/78.0.3904.130 Electron/7.3.2 Safari/537.36" etag="QOAsi6VbI1Q5yPabiWG1" version="13.6.5">
    <diagram id="cyjniA0ZzOJgdNBzTKtN" name="Page-1">
        <mxGraphModel dx="1023" dy="610" grid="1" gridSize="10" guides="1" tooltips="1" connect="1" arrows="1" fold="1" page="1" pageScale="1" pageWidth="827" pageHeight="1169" math="0" shadow="0">
            <root>
                <mxCell id="0"/>
                <mxCell id="1" parent="0"/>
                <mxCell id="_So2VJrC17p1mw5BTz6b-14" value="User" style="swimlane;fontStyle=0;childLayout=stackLayout;horizontal=1;startSize=26;horizontalStack=0;resizeParent=1;resizeParentMax=0;resizeLast=0;collapsible=1;marginBottom=0;align=center;fontSize=14;" parent="1" vertex="1">
                    <mxGeometry x="30" y="160" width="370" height="200" as="geometry">
                        <mxRectangle x="130" y="130" width="60" height="26" as="alternateBounds"/>
                    </mxGeometry>
                </mxCell>
                <mxCell id="_So2VJrC17p1mw5BTz6b-15" value="id: ObjectID" style="text;strokeColor=none;fillColor=none;spacingLeft=4;spacingRight=4;overflow=hidden;rotatable=0;points=[[0,0.5],[1,0.5]];portConstraint=eastwest;fontSize=12;" parent="_So2VJrC17p1mw5BTz6b-14" vertex="1">
                    <mxGeometry y="26" width="370" height="30" as="geometry"/>
                </mxCell>
                <mxCell id="_So2VJrC17p1mw5BTz6b-16" value="email: String" style="text;strokeColor=none;fillColor=none;spacingLeft=4;spacingRight=4;overflow=hidden;rotatable=0;points=[[0,0.5],[1,0.5]];portConstraint=eastwest;fontSize=12;" parent="_So2VJrC17p1mw5BTz6b-14" vertex="1">
                    <mxGeometry y="56" width="370" height="30" as="geometry"/>
                </mxCell>
                <mxCell id="_So2VJrC17p1mw5BTz6b-17" value="password: String" style="text;strokeColor=none;fillColor=none;spacingLeft=4;spacingRight=4;overflow=hidden;rotatable=0;points=[[0,0.5],[1,0.5]];portConstraint=eastwest;fontSize=12;" parent="_So2VJrC17p1mw5BTz6b-14" vertex="1">
                    <mxGeometry y="86" width="370" height="30" as="geometry"/>
                </mxCell>
                <mxCell id="_So2VJrC17p1mw5BTz6b-18" value="diskSpace: nimber default 1024**3**10" style="text;strokeColor=none;fillColor=none;spacingLeft=4;spacingRight=4;overflow=hidden;rotatable=0;points=[[0,0.5],[1,0.5]];portConstraint=eastwest;fontSize=12;" parent="_So2VJrC17p1mw5BTz6b-14" vertex="1">
                    <mxGeometry y="116" width="370" height="24" as="geometry"/>
                </mxCell>
                <mxCell id="_So2VJrC17p1mw5BTz6b-19" value="usedSpace: number default 0" style="text;strokeColor=none;fillColor=none;spacingLeft=4;spacingRight=4;overflow=hidden;rotatable=0;points=[[0,0.5],[1,0.5]];portConstraint=eastwest;fontSize=12;" parent="_So2VJrC17p1mw5BTz6b-14" vertex="1">
                    <mxGeometry y="140" width="370" height="30" as="geometry"/>
                </mxCell>
                <mxCell id="_So2VJrC17p1mw5BTz6b-20" value="avatar: String" style="text;strokeColor=none;fillColor=none;spacingLeft=4;spacingRight=4;overflow=hidden;rotatable=0;points=[[0,0.5],[1,0.5]];portConstraint=eastwest;fontSize=12;" parent="_So2VJrC17p1mw5BTz6b-14" vertex="1">
                    <mxGeometry y="170" width="370" height="30" as="geometry"/>
                </mxCell>
                <mxCell id="_So2VJrC17p1mw5BTz6b-29" value="" style="edgeStyle=entityRelationEdgeStyle;fontSize=12;html=1;endArrow=ERoneToMany;exitX=1;exitY=0.5;exitDx=0;exitDy=0;entryX=0;entryY=0.5;entryDx=0;entryDy=0;" parent="1" source="_So2VJrC17p1mw5BTz6b-18" target="_So2VJrC17p1mw5BTz6b-24" edge="1">
                    <mxGeometry width="100" height="100" relative="1" as="geometry">
                        <mxPoint x="390" y="360" as="sourcePoint"/>
                        <mxPoint x="490" y="260" as="targetPoint"/>
                    </mxGeometry>
                </mxCell>
                <mxCell id="_So2VJrC17p1mw5BTz6b-21" value="File" style="swimlane;fontStyle=0;childLayout=stackLayout;horizontal=1;startSize=26;horizontalStack=0;resizeParent=1;resizeParentMax=0;resizeLast=0;collapsible=1;marginBottom=0;align=center;fontSize=14;" parent="1" vertex="1">
                    <mxGeometry x="590" y="90" width="160" height="266" as="geometry"/>
                </mxCell>
                <mxCell id="_So2VJrC17p1mw5BTz6b-22" value="id: ObjectID" style="text;strokeColor=none;fillColor=none;spacingLeft=4;spacingRight=4;overflow=hidden;rotatable=0;points=[[0,0.5],[1,0.5]];portConstraint=eastwest;fontSize=12;" parent="_So2VJrC17p1mw5BTz6b-21" vertex="1">
                    <mxGeometry y="26" width="160" height="30" as="geometry"/>
                </mxCell>
                <mxCell id="_So2VJrC17p1mw5BTz6b-23" value="name: String" style="text;strokeColor=none;fillColor=none;spacingLeft=4;spacingRight=4;overflow=hidden;rotatable=0;points=[[0,0.5],[1,0.5]];portConstraint=eastwest;fontSize=12;" parent="_So2VJrC17p1mw5BTz6b-21" vertex="1">
                    <mxGeometry y="56" width="160" height="30" as="geometry"/>
                </mxCell>
                <mxCell id="_So2VJrC17p1mw5BTz6b-24" value="type: String" style="text;strokeColor=none;fillColor=none;spacingLeft=4;spacingRight=4;overflow=hidden;rotatable=0;points=[[0,0.5],[1,0.5]];portConstraint=eastwest;fontSize=12;" parent="_So2VJrC17p1mw5BTz6b-21" vertex="1">
                    <mxGeometry y="86" width="160" height="30" as="geometry"/>
                </mxCell>
                <mxCell id="_So2VJrC17p1mw5BTz6b-25" value="access_link: String" style="text;strokeColor=none;fillColor=none;spacingLeft=4;spacingRight=4;overflow=hidden;rotatable=0;points=[[0,0.5],[1,0.5]];portConstraint=eastwest;fontSize=12;" parent="_So2VJrC17p1mw5BTz6b-21" vertex="1">
                    <mxGeometry y="116" width="160" height="30" as="geometry"/>
                </mxCell>
                <mxCell id="_So2VJrC17p1mw5BTz6b-26" value="size: number" style="text;strokeColor=none;fillColor=none;spacingLeft=4;spacingRight=4;overflow=hidden;rotatable=0;points=[[0,0.5],[1,0.5]];portConstraint=eastwest;fontSize=12;" parent="_So2VJrC17p1mw5BTz6b-21" vertex="1">
                    <mxGeometry y="146" width="160" height="30" as="geometry"/>
                </mxCell>
                <mxCell id="2" value="path: String&#10;" style="text;strokeColor=none;fillColor=none;spacingLeft=4;spacingRight=4;overflow=hidden;rotatable=0;points=[[0,0.5],[1,0.5]];portConstraint=eastwest;fontSize=12;" vertex="1" parent="_So2VJrC17p1mw5BTz6b-21">
                    <mxGeometry y="176" width="160" height="30" as="geometry"/>
                </mxCell>
                <mxCell id="_So2VJrC17p1mw5BTz6b-28" value="user_id: ObjectID FK" style="text;strokeColor=none;fillColor=none;spacingLeft=4;spacingRight=4;overflow=hidden;rotatable=0;points=[[0,0.5],[1,0.5]];portConstraint=eastwest;fontSize=12;" parent="_So2VJrC17p1mw5BTz6b-21" vertex="1">
                    <mxGeometry y="206" width="160" height="30" as="geometry"/>
                </mxCell>
                <mxCell id="_So2VJrC17p1mw5BTz6b-27" value="parent_id: ObjectID FK" style="text;strokeColor=none;fillColor=none;spacingLeft=4;spacingRight=4;overflow=hidden;rotatable=0;points=[[0,0.5],[1,0.5]];portConstraint=eastwest;fontSize=12;" parent="_So2VJrC17p1mw5BTz6b-21" vertex="1">
                    <mxGeometry y="236" width="160" height="30" as="geometry"/>
                </mxCell>
            </root>
        </mxGraphModel>
    </diagram>
</mxfile>